<?xml version="1.0" encoding="utf-8"?>
<!-- Generator: Adobe Illustrator 28.0.0, SVG Export Plug-In . SVG Version: 6.00 Build 0)  -->
<svg version="1.1" id="Camada_1" xmlns="http://www.w3.org/2000/svg" xmlns:xlink="http://www.w3.org/1999/xlink" x="0px" y="0px"
	 viewBox="0 0 257.7 41" style="enable-background:new 0 0 257.7 41;" xml:space="preserve">
<style type="text/css">
	.st0{fill:#E00914;}
	.st1{fill:#FFFFFF;}
	.st2{fill:#010202;}
</style>
<g>
	<g id="Icone">
		<path class="st0" d="M33.2,41H0V7.7C0,3.4,3.5,0,7.7,0h33.2v33.3C41,37.5,37.5,41,33.2,41z"/>
		<g>
			<path class="st1" d="M26.8,9.3l-4.7-2.7c-0.1-0.1-0.3-0.1-0.4,0l-10.4,6l5.4,3.1l10-5.8C27,9.9,27,9.5,26.8,9.3z"/>
			<path class="st1" d="M16.5,16.2l-5.4-3.1v14.8c0,0.1,0.1,0.3,0.2,0.3l10.1,5.9c0.2,0.1,0.6,0,0.6-0.3v-5.4L16.5,25V16.2z"/>
			<path class="st1" d="M29.3,23.2l-4.7-2.7c-0.1-0.1-0.3-0.1-0.4,0L17,24.7l5.2,3.3l7.1-4.1C29.5,23.8,29.5,23.4,29.3,23.2z"/>
		</g>
	</g>
	<g>
		<path class="st2" d="M48.5,29.5H52c1.8,0,3.2,0.4,4.1,1.3c0.9,0.9,1.4,2.2,1.4,3.9c0,3.5-1.8,5.3-5.4,5.3h-3.4V29.5H48.5z
			 M50.3,38.5H52c1.4,0,2.4-0.3,2.9-1c0.3-0.4,0.5-0.7,0.6-1.2s0.2-1,0.2-1.6s-0.1-1.1-0.2-1.6c-0.1-0.5-0.3-0.8-0.6-1.2
			c-0.5-0.7-1.5-1-2.9-1h-1.6v7.6H50.3z"/>
		<path class="st2" d="M62.5,40.2c-0.6,0-1.1-0.1-1.6-0.3s-0.9-0.4-1.2-0.8c-0.3-0.4-0.6-0.8-0.7-1.3c-0.2-0.5-0.2-1.1-0.2-1.7
			s0.1-1.2,0.2-1.7c0.2-0.5,0.4-0.9,0.7-1.3c0.3-0.4,0.7-0.6,1.2-0.8s1-0.3,1.6-0.3s1.1,0.1,1.5,0.3c0.5,0.2,0.8,0.4,1.2,0.8
			c0.3,0.3,0.6,0.8,0.7,1.3c0.2,0.5,0.3,1.1,0.3,1.7v0.4h-5.6c0,0.4,0.1,0.8,0.2,1.1s0.3,0.5,0.4,0.7s0.4,0.4,0.6,0.4
			c0.2,0.1,0.5,0.1,0.8,0.1c0.2,0,0.4,0,0.6-0.1c0.2-0.1,0.4-0.1,0.5-0.2c0.2-0.1,0.3-0.2,0.4-0.4c0.1-0.2,0.2-0.4,0.2-0.6H66
			c-0.1,0.4-0.2,0.7-0.4,1c-0.2,0.3-0.4,0.6-0.7,0.8s-0.6,0.4-1,0.5C63.3,40.1,62.9,40.2,62.5,40.2z M64.3,35.4
			c-0.1-0.4-0.1-0.7-0.2-0.9s-0.2-0.5-0.4-0.6c-0.2-0.2-0.4-0.3-0.6-0.4s-0.5-0.1-0.7-0.1c-0.5,0-0.9,0.2-1.3,0.5
			c-0.4,0.4-0.6,0.9-0.7,1.6L64.3,35.4L64.3,35.4z"/>
		<path class="st2" d="M70.3,40.2c-1.1,0-1.9-0.2-2.5-0.6c-0.5-0.4-0.8-1-0.9-1.8h1.6c0,0.9,0.6,1.3,1.7,1.3c0.5,0,0.9-0.1,1.1-0.3
			c0.3-0.2,0.4-0.5,0.4-0.8c0-0.2-0.1-0.4-0.2-0.5s-0.3-0.2-0.5-0.3S70.5,37,70.2,37c-0.3-0.1-0.6-0.1-0.9-0.2
			c-0.3-0.1-0.6-0.2-0.9-0.3s-0.5-0.2-0.8-0.4c-0.2-0.2-0.4-0.4-0.5-0.6c-0.1-0.2-0.2-0.5-0.2-0.9c0-0.3,0.1-0.6,0.2-0.9
			c0.1-0.3,0.3-0.5,0.6-0.7s0.6-0.4,0.9-0.5c0.4-0.1,0.8-0.2,1.3-0.2c1,0,1.8,0.2,2.3,0.5c0.5,0.4,0.8,0.9,0.8,1.6h-1.6
			c-0.1-0.7-0.5-1-1.5-1c-0.2,0-0.4,0-0.5,0.1c-0.2,0.1-0.3,0.1-0.5,0.2c-0.1,0.1-0.2,0.2-0.3,0.3c-0.1,0.1-0.1,0.2-0.1,0.4
			s0,0.2,0.1,0.3c0,0.1,0.1,0.2,0.2,0.3s0.3,0.2,0.6,0.2c0.2,0.1,0.6,0.2,1,0.3c0.5,0.1,0.9,0.2,1.3,0.4c0.4,0.1,0.7,0.3,0.9,0.5
			c0.2,0.2,0.4,0.4,0.5,0.6c0.1,0.2,0.2,0.5,0.2,0.9s-0.1,0.7-0.2,1s-0.3,0.5-0.6,0.8c-0.3,0.2-0.6,0.4-1,0.5
			C71.3,40.1,70.9,40.2,70.3,40.2z"/>
		<path class="st2" d="M78.4,40.2c-0.6,0-1.1-0.1-1.6-0.3s-0.9-0.4-1.2-0.8c-0.3-0.4-0.6-0.8-0.7-1.3c-0.2-0.5-0.2-1.1-0.2-1.7
			s0.1-1.2,0.2-1.7c0.2-0.5,0.4-0.9,0.7-1.3c0.3-0.4,0.7-0.6,1.2-0.8s1-0.3,1.6-0.3s1.1,0.1,1.5,0.3c0.5,0.2,0.8,0.4,1.2,0.8
			c0.3,0.3,0.6,0.8,0.7,1.3c0.2,0.5,0.3,1.1,0.3,1.7v0.4h-5.6c0,0.4,0.1,0.8,0.2,1.1s0.3,0.5,0.4,0.7c0.2,0.2,0.4,0.4,0.6,0.4
			c0.2,0.1,0.5,0.1,0.8,0.1c0.2,0,0.4,0,0.6-0.1s0.4-0.1,0.5-0.2c0.2-0.1,0.3-0.2,0.4-0.4s0.2-0.4,0.2-0.6h1.7
			c-0.1,0.4-0.2,0.7-0.4,1s-0.4,0.6-0.7,0.8c-0.3,0.2-0.6,0.4-1,0.5C79.3,40.1,78.9,40.2,78.4,40.2z M80.2,35.4
			c-0.1-0.4-0.1-0.7-0.2-0.9s-0.2-0.5-0.4-0.6c-0.2-0.2-0.4-0.3-0.6-0.4c-0.2-0.1-0.5-0.1-0.7-0.1c-0.5,0-0.9,0.2-1.3,0.5
			c-0.4,0.4-0.6,0.9-0.7,1.6L80.2,35.4L80.2,35.4z"/>
		<path class="st2" d="M85.1,33.4c0.7-0.8,1.5-1.1,2.3-1.1c1.7,0,2.6,0.9,2.6,2.8v5h-1.7v-4.9c0-0.6-0.1-1-0.3-1.2
			c-0.2-0.2-0.5-0.4-1-0.4c-0.3,0-0.7,0.1-1,0.3s-0.7,0.5-1,0.8V40h-1.7v-7.6H85L85.1,33.4L85.1,33.4z"/>
		<path class="st2" d="M98.4,32.4L95.6,40H94l-2.8-7.6H93l1.1,3.5l0.7,2.3l0.7-2.3l1.1-3.5H98.4z"/>
		<path class="st2" d="M102.8,32.2c0.6,0,1.1,0.1,1.5,0.3c0.5,0.2,0.8,0.4,1.2,0.8c0.3,0.3,0.6,0.8,0.7,1.3c0.2,0.5,0.3,1.1,0.3,1.7
			c0,0.7-0.1,1.2-0.3,1.7c-0.2,0.5-0.4,0.9-0.7,1.3c-0.3,0.3-0.7,0.6-1.2,0.8s-1,0.3-1.5,0.3c-0.6,0-1.1-0.1-1.5-0.3
			c-0.5-0.2-0.8-0.4-1.2-0.8c-0.3-0.3-0.6-0.8-0.7-1.3c-0.2-0.5-0.3-1.1-0.3-1.7c0-0.6,0.1-1.2,0.3-1.7c0.2-0.5,0.4-0.9,0.7-1.3
			c0.3-0.4,0.7-0.6,1.2-0.8C101.7,32.3,102.2,32.2,102.8,32.2z M102.8,38.9c0.3,0,0.6-0.1,0.8-0.2c0.2-0.1,0.4-0.3,0.6-0.5
			s0.3-0.5,0.4-0.8s0.1-0.7,0.1-1.2s-0.1-0.8-0.1-1.2c-0.1-0.3-0.2-0.6-0.4-0.8s-0.4-0.4-0.6-0.5s-0.5-0.2-0.8-0.2s-0.6,0.1-0.8,0.2
			c-0.2,0.1-0.4,0.3-0.6,0.5s-0.3,0.5-0.4,0.8s-0.1,0.7-0.1,1.2s0.1,0.8,0.1,1.2c0.1,0.4,0.2,0.6,0.4,0.8c0.2,0.2,0.4,0.4,0.6,0.5
			S102.5,38.9,102.8,38.9z"/>
		<path class="st2" d="M109.7,40H108V29.5h1.7V40z"/>
		<path class="st2" d="M118,32.4l-2.8,7.6h-1.6l-2.8-7.6h1.8l1.1,3.5l0.7,2.3l0.7-2.3l1.1-3.5H118L118,32.4z"/>
		<path class="st2" d="M122.5,40.2c-0.6,0-1.1-0.1-1.6-0.3s-0.9-0.4-1.2-0.8c-0.3-0.4-0.6-0.8-0.7-1.3c-0.2-0.5-0.2-1.1-0.2-1.7
			s0.1-1.2,0.2-1.7c0.2-0.5,0.4-0.9,0.7-1.3c0.3-0.4,0.7-0.6,1.2-0.8s1-0.3,1.6-0.3s1.1,0.1,1.5,0.3c0.5,0.2,0.8,0.4,1.2,0.8
			c0.3,0.3,0.6,0.8,0.7,1.3c0.2,0.5,0.3,1.1,0.3,1.7v0.4h-5.6c0,0.4,0.1,0.8,0.2,1.1s0.3,0.5,0.4,0.7s0.4,0.4,0.6,0.4
			c0.2,0.1,0.5,0.1,0.8,0.1c0.2,0,0.4,0,0.6-0.1s0.4-0.1,0.5-0.2c0.1-0.1,0.3-0.2,0.4-0.4s0.2-0.4,0.2-0.6h1.7
			c-0.1,0.4-0.2,0.7-0.4,1s-0.4,0.6-0.7,0.8c-0.3,0.2-0.6,0.4-1,0.5C123.4,40.1,123,40.2,122.5,40.2z M124.4,35.4
			c-0.1-0.4-0.1-0.7-0.2-0.9s-0.2-0.5-0.4-0.6s-0.4-0.3-0.6-0.4c-0.2-0.1-0.5-0.1-0.7-0.1c-0.5,0-0.9,0.2-1.3,0.5
			c-0.4,0.4-0.6,0.9-0.7,1.6L124.4,35.4L124.4,35.4z"/>
		<path class="st2" d="M132.4,39.1c-0.3,0.4-0.7,0.6-1,0.8c-0.4,0.2-0.8,0.3-1.2,0.3c-0.5,0-0.9-0.1-1.3-0.3s-0.7-0.4-1-0.8
			c-0.3-0.4-0.5-0.8-0.6-1.2c-0.1-0.5-0.2-1-0.2-1.6s0.1-1.1,0.2-1.7c0.2-0.5,0.4-0.9,0.6-1.3c0.3-0.4,0.6-0.6,1-0.8
			s0.8-0.3,1.3-0.3c0.4,0,0.8,0.1,1.1,0.2c0.3,0.1,0.7,0.3,1,0.6c0-0.3,0-0.6,0-0.9s0-0.6,0-0.9v-1.7h1.7V40h-1.7L132.4,39.1
			L132.4,39.1z M132.4,34.3c-0.3-0.2-0.5-0.5-0.8-0.6s-0.6-0.2-1-0.2c-0.5,0-1,0.2-1.3,0.7s-0.5,1.1-0.5,2.1c0,0.9,0.1,1.6,0.4,2
			c0.3,0.4,0.7,0.7,1.2,0.7c0.4,0,0.7-0.1,1-0.3s0.6-0.5,0.9-0.9L132.4,34.3L132.4,34.3z"/>
		<path class="st2" d="M139.3,32.2c0.6,0,1.1,0.1,1.5,0.3c0.5,0.2,0.8,0.4,1.2,0.8c0.3,0.3,0.6,0.8,0.7,1.3c0.2,0.5,0.3,1.1,0.3,1.7
			c0,0.7-0.1,1.2-0.3,1.7s-0.4,0.9-0.7,1.3c-0.3,0.3-0.7,0.6-1.2,0.8s-1,0.3-1.5,0.3c-0.6,0-1.1-0.1-1.5-0.3
			c-0.5-0.2-0.8-0.4-1.2-0.8c-0.3-0.3-0.6-0.8-0.7-1.3c-0.2-0.5-0.3-1.1-0.3-1.7c0-0.6,0.1-1.2,0.3-1.7s0.4-0.9,0.7-1.3
			c0.3-0.3,0.7-0.6,1.2-0.8C138.2,32.3,138.7,32.2,139.3,32.2z M139.3,38.9c0.3,0,0.6-0.1,0.8-0.2s0.4-0.3,0.6-0.5
			c0.2-0.2,0.3-0.5,0.4-0.8c0.1-0.3,0.1-0.7,0.1-1.2s-0.1-0.8-0.1-1.2c-0.1-0.3-0.2-0.6-0.4-0.8s-0.4-0.4-0.6-0.5
			c-0.2-0.1-0.5-0.2-0.8-0.2s-0.6,0.1-0.8,0.2c-0.2,0.1-0.4,0.3-0.6,0.5c-0.2,0.2-0.3,0.5-0.4,0.8c-0.1,0.3-0.1,0.7-0.1,1.2
			s0.1,0.8,0.1,1.2c0.1,0.4,0.2,0.6,0.4,0.8s0.4,0.4,0.6,0.5S139,38.9,139.3,38.9z"/>
		<path class="st2" d="M146.2,33.5c0.3-0.4,0.6-0.8,1-1s0.7-0.3,1.1-0.3c0.1,0,0.2,0,0.3,0s0.2,0,0.3,0v1.6c-0.1,0-0.2-0.1-0.4-0.1
			c-0.1,0-0.3,0-0.5,0c-0.3,0-0.7,0.1-1,0.2c-0.3,0.2-0.6,0.4-0.8,0.8V40h-1.7v-7.6h1.7L146.2,33.5L146.2,33.5z"/>
		<path class="st2" d="M163,29.5l1.6,6l0.6,2.4c0.1-0.6,0.3-1.2,0.4-1.8c0.1-0.6,0.2-1.1,0.4-1.7l1.1-5h1.8L166.1,40h-1.8l-2.3-8.7
			l-2.2,8.7H158l-2.8-10.5h1.8l1.1,5c0.1,0.6,0.3,1.1,0.4,1.7c0.1,0.6,0.2,1.1,0.4,1.7l2.2-8.4L163,29.5L163,29.5z"/>
		<path class="st2" d="M173.3,40.2c-0.6,0-1.1-0.1-1.6-0.3s-0.9-0.4-1.2-0.8c-0.3-0.4-0.6-0.8-0.7-1.3c-0.2-0.5-0.2-1.1-0.2-1.7
			s0.1-1.2,0.2-1.7c0.2-0.5,0.4-0.9,0.7-1.3c0.3-0.4,0.7-0.6,1.2-0.8s1-0.3,1.6-0.3s1.1,0.1,1.5,0.3c0.5,0.2,0.8,0.4,1.2,0.8
			c0.3,0.3,0.6,0.8,0.7,1.3c0.2,0.5,0.3,1.1,0.3,1.7v0.4h-5.6c0,0.4,0.1,0.8,0.2,1.1s0.3,0.5,0.4,0.7c0.2,0.2,0.4,0.4,0.6,0.4
			c0.2,0.1,0.5,0.1,0.8,0.1c0.2,0,0.4,0,0.6-0.1c0.2-0.1,0.4-0.1,0.5-0.2c0.1-0.1,0.3-0.2,0.4-0.4c0.1-0.2,0.2-0.4,0.2-0.6h1.7
			c-0.1,0.4-0.2,0.7-0.4,1s-0.4,0.6-0.7,0.8s-0.6,0.4-1,0.5C174.2,40.1,173.8,40.2,173.3,40.2z M175.2,35.4
			c-0.1-0.4-0.1-0.7-0.2-0.9c-0.1-0.2-0.2-0.5-0.4-0.6c-0.2-0.2-0.4-0.3-0.6-0.4c-0.2-0.1-0.5-0.1-0.7-0.1c-0.5,0-0.9,0.2-1.3,0.5
			c-0.4,0.4-0.6,0.9-0.7,1.6L175.2,35.4L175.2,35.4z"/>
		<path class="st2" d="M180.1,31.4c0,0.3,0,0.6,0,1s0,0.7,0,1c0.3-0.4,0.6-0.6,1-0.8s0.8-0.3,1.2-0.3c0.5,0,0.9,0.1,1.3,0.3
			c0.4,0.2,0.7,0.5,1,0.8c0.3,0.4,0.5,0.8,0.6,1.3s0.2,1,0.2,1.6s-0.1,1.2-0.2,1.7c-0.1,0.5-0.4,0.9-0.6,1.3c-0.3,0.4-0.6,0.6-1,0.8
			s-0.8,0.3-1.3,0.3c-0.4,0-0.8-0.1-1.1-0.2s-0.7-0.3-1-0.6V40h-1.7V29.5h1.7L180.1,31.4L180.1,31.4z M180.1,38.1
			c0.3,0.3,0.5,0.5,0.8,0.6s0.6,0.2,1,0.2c0.5,0,1-0.2,1.3-0.7s0.5-1.1,0.5-2.1c0-0.9-0.1-1.6-0.4-2c-0.3-0.4-0.7-0.7-1.2-0.7
			c-0.4,0-0.7,0.1-1,0.3s-0.6,0.5-0.9,0.9L180.1,38.1L180.1,38.1z"/>
	</g>
</g>
<g>
	<path d="M53.7,4.3c0.3-0.3,0.7-0.5,1.4-0.5c0.3,0,0.7,0,1,0c0.3,0,0.6,0.1,0.9,0.1l0.3,0V0.3l-0.2,0c-0.4-0.1-0.8-0.1-1.2-0.2
		C55.4,0,54.9,0,54.4,0c-1.9,0-3.3,0.5-4.2,1.5c-0.9,1-1.4,2.5-1.4,4.5v1.2h-2.6v3.5h2.6v14.7h4.5V10.7h3.2V7.2h-3.2V6.1
		C53.2,5.3,53.4,4.6,53.7,4.3z"/>
	<path d="M72.5,9.2c-0.8-0.8-1.7-1.4-2.8-1.8c-1.1-0.4-2.3-0.6-3.6-0.6c-1.4,0-2.6,0.2-3.7,0.6c-1.1,0.4-2,1.1-2.8,1.9
		c-0.8,0.8-1.4,1.8-1.8,3c-0.4,1.2-0.6,2.5-0.6,3.9s0.2,2.8,0.6,4c0.4,1.2,1,2.2,1.8,3c0.8,0.8,1.7,1.5,2.9,1.9
		c1.1,0.4,2.4,0.7,3.8,0.7c1.1,0,2.1-0.1,3-0.4c0.9-0.3,1.8-0.6,2.5-1.1c0.7-0.5,1.3-1.1,1.8-1.9c0.5-0.7,0.8-1.6,0.9-2.5l0-0.3
		h-4.4l0,0.2c-0.1,0.5-0.2,0.9-0.4,1.2c-0.2,0.3-0.5,0.6-0.8,0.8c-0.3,0.2-0.7,0.4-1.1,0.5c-1,0.2-2.2,0.2-3.1-0.2
		c-0.5-0.2-1-0.5-1.4-0.9c-0.4-0.4-0.7-1-1-1.6c-0.2-0.6-0.4-1.3-0.4-2.1h13v-1.2c0-1.5-0.2-2.8-0.6-4C73.9,11,73.3,10,72.5,9.2z
		 M62,14.2c0.2-1.4,0.7-2.4,1.4-3.1c0.7-0.7,1.6-1.1,2.7-1.1c0.6,0,1.1,0.1,1.6,0.3c0.5,0.2,0.9,0.4,1.2,0.8
		c0.4,0.4,0.7,0.8,0.9,1.4c0.2,0.5,0.4,1.1,0.5,1.8H62z"/>
	<path d="M87.4,6.8c-0.2,0-0.5,0-0.7,0c-1,0-1.9,0.3-2.7,0.8c-0.6,0.4-1.2,1-1.8,1.7V7.2h-4.4v18.2h4.5V13.1
		c0.5-0.7,1.1-1.3,1.8-1.6c0.6-0.4,1.3-0.5,2.1-0.5c0.4,0,0.8,0,1.1,0c0.3,0,0.6,0.1,0.9,0.1l0.3,0.1V7l-0.2,0
		C87.9,6.9,87.6,6.9,87.4,6.8z"/>
	<path d="M99.8,6.8c-1.9,0-3.6,0.8-5.1,2.2V7.2h-4.4v18.2h4.5V12.8c0.7-0.8,1.4-1.4,2.1-1.8c0.7-0.4,1.4-0.6,2.1-0.6
		c0.9,0,1.6,0.3,2,0.8c0.4,0.5,0.6,1.4,0.6,2.7v11.5h4.5V13.5C106,9.1,103.9,6.8,99.8,6.8z"/>
	<path d="M123.3,8.2c-0.7-0.5-1.6-0.9-2.5-1.1c-0.9-0.2-2-0.3-3.2-0.3c-5.1,0-7.9,1.9-8.1,5.7l0,0.3h4.3l0-0.3
		c0-0.9,0.3-1.5,0.9-1.9c0.6-0.4,1.5-0.6,2.7-0.6c1.2,0,2.1,0.2,2.6,0.7c0.4,0.3,0.7,0.7,0.8,1.3c0.1,0.2,0.1,0.5,0.1,0.9
		c0,0.3,0,0.7,0,1.1h-1.2c-3.6,0-6.3,0.5-8.1,1.6c-1.8,1.1-2.8,2.7-2.8,4.9c0,0.9,0.2,1.7,0.5,2.3c0.3,0.7,0.8,1.2,1.4,1.7
		c0.6,0.4,1.3,0.8,2,1c0.8,0.2,1.6,0.3,2.4,0.3c2.3,0,4.2-0.6,5.8-1.8v1.4h4.5V13.7c0-1.5-0.2-2.6-0.5-3.5
		C124.6,9.3,124.1,8.6,123.3,8.2z M121,20.4c-0.2,0.3-0.5,0.6-0.8,0.8c-0.3,0.3-0.7,0.5-1.1,0.7c-0.4,0.2-0.8,0.3-1.2,0.4
		c-0.4,0.1-0.9,0.2-1.3,0.2c-1,0-1.7-0.2-2.3-0.6c-0.5-0.4-0.8-0.9-0.8-1.7c0-1.1,0.5-1.8,1.4-2.3c1-0.5,2.5-0.8,4.5-0.8h1.6V20.4z"
		/>
	<path d="M138.9,6.8c-1.9,0-3.6,0.8-5.1,2.2V7.2h-4.4v18.2h4.5V12.8c0.7-0.8,1.4-1.4,2.1-1.8c0.7-0.4,1.4-0.6,2.1-0.6
		c0.9,0,1.6,0.3,2,0.8c0.4,0.5,0.6,1.4,0.6,2.7v11.5h4.5V13.5C145.2,9.1,143.1,6.8,138.9,6.8z"/>
	<path d="M160.2,4.7c0,0.7,0,1.3,0,2c0,0.5,0,1,0,1.5c-0.6-0.4-1.2-0.8-1.8-1c-0.8-0.3-1.7-0.4-2.7-0.4c-1.2,0-2.3,0.2-3.2,0.7
		c-0.9,0.5-1.8,1.1-2.4,2c-0.7,0.8-1.2,1.9-1.5,3.1c-0.4,1.2-0.5,2.5-0.5,3.9c0,1.4,0.2,2.7,0.5,3.8c0.3,1.1,0.8,2.1,1.4,2.9
		c0.6,0.8,1.4,1.5,2.4,1.9c0.9,0.4,2,0.7,3.2,0.7c1,0,2-0.2,2.9-0.7c0.7-0.4,1.3-0.8,2-1.4v1.7h4.4V0.5h-4.5V4.7z M160.2,19.7
		c-0.6,0.8-1.3,1.5-1.9,1.9c-0.7,0.4-1.4,0.7-2.1,0.7c-1.1,0-2-0.5-2.6-1.4c-0.6-1-1-2.5-1-4.4c0-2.1,0.3-3.6,1-4.6
		c0.7-1,1.6-1.5,2.7-1.5c0.7,0,1.4,0.1,2.1,0.4c0.6,0.3,1.2,0.7,1.8,1.2V19.7z"/>
	<path d="M182.9,9.3c-0.8-0.8-1.7-1.4-2.8-1.8c-1.1-0.4-2.3-0.6-3.6-0.6c-1.3,0-2.5,0.2-3.6,0.6c-1.1,0.4-2,1-2.8,1.8
		c-0.8,0.8-1.4,1.8-1.8,3c-0.4,1.2-0.6,2.5-0.6,4c0,1.5,0.2,2.9,0.6,4c0.4,1.2,1,2.2,1.8,3c0.8,0.8,1.7,1.4,2.8,1.9
		c1.1,0.4,2.3,0.6,3.6,0.6c1.3,0,2.6-0.2,3.6-0.6c1.1-0.4,2-1,2.8-1.9c0.8-0.8,1.4-1.8,1.8-3c0.4-1.2,0.6-2.5,0.6-4
		c0-1.5-0.2-2.8-0.6-4C184.3,11.1,183.7,10.1,182.9,9.3z M180.4,18.9c-0.2,0.7-0.5,1.4-0.9,1.9c-0.4,0.5-0.8,0.9-1.3,1.1
		c-1,0.5-2.4,0.5-3.5,0c-0.5-0.2-1-0.6-1.3-1.1c-0.4-0.5-0.7-1.1-0.9-1.9c-0.2-0.8-0.3-1.7-0.3-2.7c0-1,0.1-1.9,0.3-2.7
		c0.2-0.7,0.5-1.4,0.9-1.9c0.4-0.5,0.8-0.9,1.3-1.1c0.5-0.2,1.1-0.4,1.7-0.4s1.2,0.1,1.7,0.4c0.5,0.2,1,0.6,1.3,1.1
		c0.4,0.5,0.7,1.1,0.9,1.9c0.2,0.7,0.3,1.6,0.3,2.7C180.7,17.3,180.6,18.2,180.4,18.9z"/>
	<polygon points="192.7,0.9 189,0.9 189,24.9 204.2,24.9 204.2,21.7 192.7,21.7 	"/>
	<path d="M221.3,9.5c-0.7-0.8-1.6-1.3-2.6-1.7c-1-0.4-2.2-0.6-3.5-0.6c-1.3,0-2.5,0.2-3.5,0.6c-1,0.4-1.9,1-2.6,1.8
		c-0.7,0.8-1.3,1.7-1.7,2.8c-0.4,1.1-0.6,2.4-0.6,3.8c0,1.4,0.2,2.7,0.6,3.8c0.4,1.1,1,2.1,1.7,2.9c0.7,0.8,1.7,1.4,2.7,1.8
		c1.1,0.4,2.3,0.6,3.7,0.6c1,0,2-0.1,2.9-0.4c0.9-0.2,1.7-0.6,2.3-1.1c0.7-0.5,1.2-1,1.7-1.7c0.3-0.5,0.6-1.1,0.7-1.7l0.1-0.5h-3.6
		l-0.1,0.3c-0.1,0.4-0.2,0.7-0.4,1c-0.3,0.4-0.6,0.7-0.9,0.9c-0.4,0.2-0.8,0.4-1.3,0.5c-1.1,0.3-2.4,0.2-3.3-0.2
		c-0.6-0.2-1.1-0.6-1.5-1c-0.4-0.5-0.8-1.1-1.1-1.8c-0.3-0.7-0.4-1.6-0.5-2.5l0-0.2h13.1v-0.8c0-1.4-0.2-2.7-0.6-3.9
		C222.6,11.2,222,10.3,221.3,9.5z M219.9,14.6h-9.3l0-0.2c0.2-1.6,0.7-2.9,1.5-3.7c0.8-0.8,1.8-1.2,3-1.2c0.6,0,1.2,0.1,1.7,0.3
		c0.5,0.2,1,0.5,1.4,0.9c0.4,0.4,0.7,0.9,1,1.5c0.3,0.6,0.4,1.3,0.6,2.2L219.9,14.6z"/>
	<rect x="227.3" y="0.9" width="3.6" height="24"/>
	<rect x="235.7" y="0.8" width="3.6" height="3.4"/>
	<rect x="235.7" y="7.6" width="3.6" height="17.3"/>
	<path d="M257.4,17.8c-0.2-0.5-0.6-1-1.1-1.4c-0.5-0.4-1.2-0.7-2-1c-0.8-0.3-1.8-0.6-2.9-0.9c-1-0.2-1.8-0.4-2.4-0.6
		c-0.6-0.2-1.1-0.4-1.4-0.6c-0.3-0.2-0.5-0.4-0.6-0.7c-0.1-0.2-0.1-0.5-0.1-0.8c0-0.4,0.1-0.7,0.3-1c0.2-0.3,0.4-0.5,0.7-0.7
		c0.3-0.2,0.7-0.3,1.1-0.4c0.4-0.1,0.9-0.1,1.3-0.1c2,0,3.2,0.7,3.5,2.1l0.1,0.3h3.4l-0.1-0.5c-0.2-1.3-0.8-2.3-1.8-3.1
		c-1.2-0.8-3-1.2-5.3-1.2c-1.1,0-2,0.1-2.9,0.4c-0.8,0.3-1.5,0.6-2.1,1.1c-0.6,0.4-1,1-1.3,1.6c-0.3,0.6-0.5,1.3-0.5,2
		c0,0.8,0.2,1.5,0.4,2c0.3,0.5,0.7,1,1.2,1.4c0.5,0.4,1.1,0.7,1.7,0.9c0.6,0.2,1.3,0.5,2,0.6c0.7,0.2,1.3,0.3,2,0.5
		c0.7,0.2,1.2,0.3,1.8,0.5c0.5,0.2,1,0.5,1.3,0.8c0.3,0.3,0.5,0.7,0.5,1.2c0,0.8-0.3,1.4-1,1.9c-0.6,0.5-1.6,0.7-2.8,0.7
		c-2.5,0-3.8-0.9-4.1-2.7l0-0.3h-3.5l0.1,0.5c0.2,1.5,0.9,2.7,2,3.5c1.2,0.9,3.1,1.4,5.6,1.4c1.2,0,2.3-0.1,3.2-0.4
		c0.9-0.3,1.6-0.7,2.2-1.1c0.6-0.5,1.1-1.1,1.3-1.7c0.3-0.7,0.5-1.4,0.5-2.2C257.7,19.1,257.6,18.4,257.4,17.8z"/>
</g>
</svg>
